<svg width="573" height="156" viewBox="0 0 573 156" fill="none" xmlns="http://www.w3.org/2000/svg">
<g clip-path="url(#clip0_1721_10)">
<path d="M0.52422 153V44.6H36.7242V76.2L31.3242 67.2C34.5242 59.0667 39.7242 53 46.9242 49C54.1242 44.8667 62.8576 42.8 73.1242 42.8V77C71.3909 76.7333 69.8576 76.6 68.5242 76.6C67.3242 76.4667 65.9909 76.4 64.5242 76.4C56.7909 76.4 50.5242 78.5333 45.7242 82.8C40.9242 86.9333 38.5242 93.7333 38.5242 103.2V153H0.52422ZM144.629 154.8C131.829 154.8 120.629 152.4 111.029 147.6C101.562 142.667 94.1622 136 88.8289 127.6C83.6289 119.067 81.0289 109.4 81.0289 98.6C81.0289 87.8 83.5622 78.2 88.6289 69.8C93.8289 61.2667 100.962 54.6667 110.029 50C119.096 45.2 129.296 42.8 140.629 42.8C151.296 42.8 161.029 45 169.829 49.4C178.629 53.6667 185.629 60 190.829 68.4C196.029 76.8 198.629 87 198.629 99C198.629 100.333 198.562 101.867 198.429 103.6C198.296 105.333 198.162 106.933 198.029 108.4H112.229V88.4H177.829L163.429 94C163.562 89.0667 162.629 84.8 160.629 81.2C158.762 77.6 156.096 74.8 152.629 72.8C149.296 70.8 145.362 69.8 140.829 69.8C136.296 69.8 132.296 70.8 128.829 72.8C125.496 74.8 122.896 77.6667 121.029 81.4C119.162 85 118.229 89.2667 118.229 94.2V100C118.229 105.333 119.296 109.933 121.429 113.8C123.696 117.667 126.896 120.667 131.029 122.8C135.162 124.8 140.096 125.8 145.829 125.8C151.162 125.8 155.696 125.067 159.429 123.6C163.296 122 167.096 119.6 170.829 116.4L190.829 137.2C185.629 142.933 179.229 147.333 171.629 150.4C164.029 153.333 155.029 154.8 144.629 154.8ZM254.749 74.4H319.349V105H254.749V74.4ZM257.549 153H217.949V13H327.749V43.6H257.549V153ZM402.673 153V4.59999H440.673V153H402.673ZM520.768 154.8C508.768 154.8 498.035 152.4 488.568 147.6C479.235 142.8 471.901 136.2 466.568 127.8C461.235 119.267 458.568 109.533 458.568 98.6C458.568 87.6667 461.235 78 466.568 69.6C471.901 61.2 479.235 54.6667 488.568 50C498.035 45.2 508.768 42.8 520.768 42.8C533.035 42.8 543.635 45.4 552.568 50.6C561.501 55.8 567.835 63.1333 571.568 72.6L542.168 87.6C539.635 82.5333 536.501 78.8667 532.768 76.6C529.035 74.2 524.968 73 520.568 73C516.168 73 512.168 74 508.568 76C504.968 78 502.101 80.9333 499.968 84.8C497.968 88.5333 496.968 93.1333 496.968 98.6C496.968 104.2 497.968 108.933 499.968 112.8C502.101 116.667 504.968 119.6 508.568 121.6C512.168 123.6 516.168 124.6 520.568 124.6C524.968 124.6 529.035 123.467 532.768 121.2C536.501 118.8 539.635 115.067 542.168 110L571.568 125C567.835 134.467 561.501 141.8 552.568 147C543.635 152.2 533.035 154.8 520.768 154.8Z" fill="url(#paint0_linear_1721_10)"/>
<path d="M362.5 152.966C352.283 152.966 344 144.683 344 134.466V71.5683H381V134.466C381 144.683 372.717 152.966 362.5 152.966V152.966Z" fill="#3C7BF5"/>
<path d="M362.5 45L344 71.5681H381L362.5 45Z" fill="#3C7BF5"/>
<path d="M382 21C382 32.0457 373.046 41 362 41C350.954 41 342 32.0457 342 21C342 9.9543 350.954 1 362 1C373.046 1 382 9.9543 382 21Z" fill="#FEFEFE"/>
</g>
<defs>
<linearGradient id="paint0_linear_1721_10" x1="-12" y1="80.168" x2="574" y2="80.168" gradientUnits="userSpaceOnUse">
<stop stop-color="#58A2E8"/>
<stop offset="1" stop-color="#275ABD"/>
</linearGradient>
<clipPath id="clip0_1721_10">
<rect width="573" height="156" fill="white"/>
</clipPath>
</defs>
</svg>
