<svg width="27" height="36" viewBox="0 0 27 36" fill="none" xmlns="http://www.w3.org/2000/svg">
<path d="M3.34884 35.7893C2.42791 35.7893 1.63926 35.4592 0.982888 34.799C0.326514 34.1388 -0.00111344 33.3461 2.84282e-06 32.4209V15.5788C2.84282e-06 14.6525 0.328189 13.8592 0.984558 13.199C1.64093 12.5388 2.42903 12.2093 3.34884 12.2104H5.02326V8.84193C5.02326 6.51216 5.83982 4.52588 7.47291 2.88321C9.10603 1.24055 11.0802 0.419777 13.3953 0.4209C15.7116 0.4209 17.6863 1.24223 19.3194 2.8849C20.9526 4.52757 21.7685 6.51323 21.7675 8.84193V12.2104H23.4418C24.3628 12.2104 25.1514 12.5405 25.8078 13.2007C26.4642 13.8609 26.7918 14.6536 26.7907 15.5788V32.4209C26.7907 33.3472 26.4625 34.1405 25.8062 34.8007C25.1497 35.4609 24.3617 35.7905 23.4418 35.7893H3.34884ZM13.3953 27.3683C14.3163 27.3683 15.1049 27.0382 15.7613 26.378C16.4177 25.7177 16.7453 24.925 16.7442 23.9998C16.7442 23.0735 16.416 22.2803 15.7596 21.62C15.1032 20.9598 14.3151 20.6303 13.3953 20.6314C12.4744 20.6314 11.6858 20.9615 11.0294 21.6217C10.373 22.2819 10.0454 23.0747 10.0465 23.9998C10.0465 24.9262 10.3747 25.7194 11.0311 26.3796C11.6874 27.0399 12.4755 27.3694 13.3953 27.3683ZM8.37207 12.2104H18.4186V8.84193C18.4186 7.43843 17.9303 6.24546 16.9535 5.263C15.9767 4.28055 14.7907 3.78932 13.3953 3.78932C12 3.78932 10.8139 4.28055 9.83723 5.263C8.86046 6.24546 8.37207 7.43843 8.37207 8.84193V12.2104Z" fill="url(#paint0_linear_1589_86)"/>
<defs>
<linearGradient id="paint0_linear_1589_86" x1="-0.209202" y1="22.1052" x2="222.279" y2="22.1052" gradientUnits="userSpaceOnUse">
<stop stop-color="#FFC700"/>
<stop offset="1" stop-color="#FFC700" stop-opacity="0"/>
</linearGradient>
</defs>
</svg>
